# xmcd
#
# Track frame offsets: 
#        150
#        40997
#        65737
#        94207
#        124369
#        143204
#        169639
#        189034
#        214714
#        235229
#        263194
#
# Disc length: 3654 seconds
#
# Revision: 3
# Processed by: cddbd v1.5.2PL0 Copyright (c) Steve Scherf et al.
# Submitted via: ExactAudioCopy v1.0b3
#
DISCID=9f0e440b
DTITLE=寺久保　エレナ - Burkina
DYEAR=2013
DGENRE=Jazz
TTITLE0=Burkina
TTITLE1=Warmth
TTITLE2=Azule Serape
TTITLE3=Everything Happens To Me
TTITLE4=I'm In The Mood For Love
TTITLE5=The Days Of Wine And Roses
TTITLE6=Move
TTITLE7=My Ideal
TTITLE8=Never Say Yes
TTITLE9=Stay Beautiful
TTITLE10=That's All
EXTD=YEAR: 2013
EXTT0=
EXTT1=
EXTT2=
EXTT3=
EXTT4=
EXTT5=
EXTT6=
EXTT7=
EXTT8=
EXTT9=
EXTT10=
PLAYORDER=
